HIERARCHY
ROOT joint_0
{
	OFFSET 0.000000 0.000000 0.000000
	CHANNELS 6 Xposition Yposition Zposition Zrotation Yrotation Xrotation 
	JOINT joint_1
	{
		OFFSET 0.511002 1.944000 108.288940
		CHANNELS 3 Zrotation Yrotation Xrotation
		JOINT joint_2
		{
			OFFSET -9.074005 1.512993 98.440063
			CHANNELS 3 Zrotation Yrotation Xrotation
			JOINT joint_3
			{
				OFFSET -8.590996 1.815002 98.366943
				CHANNELS 3 Zrotation Yrotation Xrotation
				JOINT joint_4
				{
					OFFSET 2.489998 3.531998 136.462036
					CHANNELS 3 Zrotation Yrotation Xrotation
					JOINT joint_5
					{
						OFFSET 22.708000 2.955002 80.357056
						CHANNELS 3 Zrotation Yrotation Xrotation
						End Site
						{
							OFFSET 0.000000 0.000000 0.000000
						}
					}
				}
				JOINT joint_6
				{
					OFFSET 2.860001 -27.684998 77.234009
					CHANNELS 3 Zrotation Yrotation Xrotation
					JOINT joint_7
					{
						OFFSET 5.449997 -131.244003 -18.851929
						CHANNELS 3 Zrotation Yrotation Xrotation
						JOINT joint_8
						{
							OFFSET 35.757000 -24.661995 -264.074097
							CHANNELS 3 Zrotation Yrotation Xrotation
							JOINT joint_9
							{
								OFFSET 49.392001 -1.747002 -239.960938
								CHANNELS 3 Zrotation Yrotation Xrotation
								End Site
								{
									OFFSET 0.000000 0.000000 0.000000
								}
							}
						}
					}
				}
				JOINT joint_10
				{
					OFFSET -0.127998 31.625000 75.753052
					CHANNELS 3 Zrotation Yrotation Xrotation
					JOINT joint_11
					{
						OFFSET -5.618004 131.132996 -19.557007
						CHANNELS 3 Zrotation Yrotation Xrotation
						JOINT joint_12
						{
							OFFSET 46.488998 30.127991 -261.826050
							CHANNELS 3 Zrotation Yrotation Xrotation
							JOINT joint_13
							{
								OFFSET 66.021003 0.474030 -235.934937
								CHANNELS 3 Zrotation Yrotation Xrotation
								End Site
								{
									OFFSET 0.000000 0.000000 0.000000
								}
							}
						}
					}
				}
			}
		}
	}
	JOINT joint_14
	{
		OFFSET 15.887001 -78.871004 -94.561035
		CHANNELS 3 Zrotation Yrotation Xrotation
		JOINT joint_15
		{
			OFFSET -4.133003 6.714001 -473.615967
			CHANNELS 3 Zrotation Yrotation Xrotation
			JOINT joint_16
			{
				OFFSET -19.541000 5.340000 -399.613007
				CHANNELS 3 Zrotation Yrotation Xrotation
				JOINT joint_17
				{
					OFFSET 164.317001 41.657999 -73.195000
					CHANNELS 3 Zrotation Yrotation Xrotation
					End Site
					{
						OFFSET 0.000000 0.000000 0.000000
					}
				}
			}
		}
	}
	JOINT joint_18
	{
		OFFSET 6.513000 77.960991 -96.406982
		CHANNELS 3 Zrotation Yrotation Xrotation
		JOINT joint_19
		{
			OFFSET -10.660004 -8.518997 -473.485016
			CHANNELS 3 Zrotation Yrotation Xrotation
			JOINT joint_20
			{
				OFFSET -36.967995 -11.098999 -398.260010
				CHANNELS 3 Zrotation Yrotation Xrotation
				JOINT joint_21
				{
					OFFSET 166.067997 30.363998 -74.785000
					CHANNELS 3 Zrotation Yrotation Xrotation
					End Site
					{
						OFFSET 0.000000 0.000000 0.000000
					}
				}
			}
		}
	}
}
MOTION
Frames: 13
Frame Time: 0.016667
-1910.636108 952.811401 1056.567993 -0.758981 11.812711 0.453492 -2.077198 2.133647 2.074737 -2.366095 -0.342065 -0.383310 -2.275955 0.358954 0.407244 0.848177 -7.277005 -1.427802 0.000000 0.000000 0.000000 11.222447 -34.986561 -2.767535 -19.857012 -14.726231 4.619235 -6.998403 -70.741811 49.351772 0.000000 0.000000 0.000000 -9.556288 -21.278297 5.927648 19.817409 -15.684964 -3.489355 2.813134 -84.073462 -21.487769 0.000000 0.000000 0.000000 -3.176436 -22.994074 -4.712322 -1.857462 28.518376 0.426505 -3.593306 -8.099826 0.559412 0.000000 0.000000 0.000000 -0.239601 -13.258335 3.674255 0.255715 7.799289 -2.172362 0.366118 -4.286425 0.941980 0.000000 0.000000 0.000000 
-1894.693970 954.984436 1056.876953 -0.163274 12.156069 0.872579 -2.772493 2.156255 1.585047 -3.047983 -0.314215 -0.227137 -2.950293 0.266152 0.411874 0.859290 -7.614959 -1.308596 0.000000 0.000000 0.000000 12.229641 -38.256810 -2.373230 -17.968226 -15.412243 5.496478 -6.114715 -65.728490 45.598082 0.000000 0.000000 0.000000 -10.777510 -22.070982 6.680864 18.139937 -16.426578 -3.201528 2.559247 -83.044352 -15.776445 0.000000 0.000000 0.000000 -3.715398 -25.947586 -5.729845 -1.640180 34.839431 1.431733 -3.943686 -7.458371 0.305535 0.000000 0.000000 0.000000 -0.674504 -12.686697 3.166424 0.153998 7.733380 -2.115645 0.308483 -4.494551 0.951983 0.000000 0.000000 0.000000 
-1875.641602 956.797180 1056.858032 0.182885 12.230658 1.278111 -3.299129 1.910238 1.229698 -3.510461 -0.214020 -0.217298 -3.328185 0.137825 0.430923 0.826299 -7.599059 -1.048242 0.000000 0.000000 0.000000 13.071839 -38.918607 -2.829668 -22.592062 -15.223850 4.835809 -12.284128 -62.737611 58.452607 0.000000 0.000000 0.000000 -10.500657 -22.334183 6.265582 17.066564 -16.645886 -3.536801 2.055081 -85.349329 -13.674836 0.000000 0.000000 0.000000 -4.263772 -28.320589 -6.814345 -1.327949 41.111418 2.782432 -4.346661 -6.876491 0.073113 0.000000 0.000000 0.000000 -1.090309 -11.480627 2.788855 0.049881 7.475151 -2.266016 0.223023 -4.867989 0.980095 0.000000 0.000000 0.000000 
-1854.080933 958.329590 1056.754028 0.465658 12.030768 1.703070 -3.773931 1.540962 0.906175 -3.824981 -0.123418 -0.230871 -3.519721 0.003433 0.434758 0.768625 -7.283685 -0.768880 0.000000 0.000000 0.000000 14.154076 -34.929783 -3.804491 -13.977856 -16.901100 -2.525026 101.855503 -73.564974 -66.610799 0.000000 0.000000 0.000000 -9.425831 -22.060958 5.187521 16.295111 -16.714720 -4.337257 1.250609 -89.072879 -13.434107 0.000000 0.000000 0.000000 -4.826813 -30.167318 -7.945812 -1.002766 46.980351 4.150922 -4.921994 -6.057181 -0.250085 0.000000 0.000000 0.000000 -1.461032 -9.839882 2.430174 -0.119258 7.259082 -2.492010 0.066649 -5.205941 0.973052 0.000000 0.000000 0.000000 
-1831.137207 959.387634 1057.020996 0.507486 11.753007 1.987329 -4.114372 1.003273 0.708475 -3.915474 -0.072676 -0.211284 -3.539114 -0.105127 0.426548 0.683502 -6.777905 -0.574663 0.000000 0.000000 0.000000 13.260258 -44.631618 -2.744833 -57.153771 -11.677182 5.561839 147.328933 -68.130577 -65.906377 0.000000 0.000000 0.000000 -8.295203 -21.598473 4.214719 15.958028 -16.689430 -5.108208 -179.310924 -88.338617 165.845261 0.000000 0.000000 0.000000 -5.249459 -31.258205 -8.625663 -0.982417 50.180482 4.490935 -5.893781 -5.519547 -0.669559 0.000000 0.000000 0.000000 -1.645135 -8.478729 2.210006 -0.305384 7.901357 -2.736312 -0.087553 -5.288660 0.924024 0.000000 0.000000 0.000000 
-1806.740845 959.814636 1058.131958 -0.066608 11.569903 1.892695 -4.269030 0.030299 0.919327 -3.737233 -0.063930 -0.269755 -3.323103 -0.185549 0.415946 0.562597 -5.951584 -0.449687 0.000000 0.000000 0.000000 12.673047 -43.171002 -2.418857 -51.443693 -11.446343 5.640242 146.137753 -66.379549 -68.612671 0.000000 0.000000 0.000000 -7.157438 -20.893686 3.787846 16.436506 -16.479773 -5.795111 -179.159567 -87.953742 163.958251 0.000000 0.000000 0.000000 -5.486342 -31.547096 -8.273390 -1.531402 49.727592 3.032350 -7.507506 -6.010036 -1.152819 0.000000 0.000000 0.000000 -1.483564 -7.528219 2.183139 -0.315732 9.392184 -2.748150 -0.045364 -4.842435 0.864096 0.000000 0.000000 0.000000 
-1780.961670 959.766357 1059.613037 -1.013856 11.361467 1.585540 -4.188889 -1.191970 1.404113 -3.377371 -0.037664 -0.358470 -2.929530 -0.287548 0.392256 0.431747 -4.904865 -0.381854 0.000000 0.000000 0.000000 13.453359 -25.472410 -3.574681 14.595601 -18.446384 -13.369956 96.168301 -76.198745 -83.969113 0.000000 0.000000 0.000000 -5.951157 -20.036328 3.618679 17.378487 -15.944618 -6.499588 -178.588910 -88.505479 161.103889 0.000000 0.000000 0.000000 -5.602448 -31.199194 -7.379823 -2.512082 46.753395 0.651827 -9.278525 -6.906195 -1.666236 0.000000 0.000000 0.000000 -1.179245 -6.874923 2.378706 -0.248273 11.668283 -2.835777 0.048778 -3.943569 0.743189 0.000000 0.000000 0.000000 
-1755.130615 959.515137 1060.505005 -1.722046 10.952590 1.460756 -3.844218 -2.156590 1.661474 -2.984443 0.071502 -0.305233 -2.525927 -0.385512 0.365111 0.321066 -4.033321 -0.324231 0.000000 0.000000 0.000000 11.486926 -35.503159 -2.115706 -18.066646 -14.238207 3.402058 -18.899557 -65.218415 71.798088 0.000000 0.000000 0.000000 -5.045689 -19.303452 3.326249 17.863722 -15.268269 -7.031576 -178.216135 -88.795733 159.004477 0.000000 0.000000 0.000000 -5.588227 -30.494389 -6.951538 -3.613059 42.453965 -1.183083 -10.341176 -7.128524 -2.118907 0.000000 0.000000 0.000000 -1.169181 -6.908899 2.961399 -0.446114 15.486494 -3.843244 -0.245950 -2.759741 0.407978 0.000000 0.000000 0.000000 
-1729.204468 959.070801 1060.871948 -1.959189 10.216917 1.440605 -3.160989 -2.716431 1.968676 -2.538460 0.297982 -0.304906 -2.102913 -0.473304 0.350323 0.219807 -3.438915 -0.236140 0.000000 0.000000 0.000000 10.879804 -35.381989 -1.938474 -20.291911 -13.047314 5.734724 -15.580210 -65.887627 70.511251 0.000000 0.000000 0.000000 -4.611499 -18.736932 2.685327 17.332237 -14.518462 -7.266916 -178.339696 -88.662741 158.716398 0.000000 0.000000 0.000000 -5.372278 -29.231125 -7.183124 -4.854683 35.748808 -1.731558 -10.194823 -5.607329 -2.586842 0.000000 0.000000 0.000000 -1.840703 -7.870953 4.371255 -1.366680 21.479582 -6.385911 -1.712687 0.131674 -0.714850 0.000000 0.000000 0.000000 
-1703.227661 958.424438 1060.650024 -1.548044 9.088465 1.468401 -2.331308 -2.628628 2.354119 -2.150021 0.374449 -0.355831 -1.853938 -0.543062 0.374051 0.111815 -3.026476 -0.138546 0.000000 0.000000 0.000000 10.556181 -33.959762 -1.958883 -21.449897 -12.813705 7.520425 -16.325635 -67.813143 71.332817 0.000000 0.000000 0.000000 -4.449969 -18.408544 1.891826 16.249468 -13.530712 -7.252258 -178.571196 -88.261432 159.176472 0.000000 0.000000 0.000000 -5.292687 -26.885337 -7.732842 -6.307134 26.782683 -1.357230 -9.615132 -1.809874 -3.433211 0.000000 0.000000 0.000000 -2.920156 -9.260194 6.388293 -2.874706 28.374964 -9.868700 -4.569178 5.278937 -2.804376 0.000000 0.000000 0.000000 
-1678.666016 957.809204 1058.675049 -0.650325 7.850140 1.713908 -1.812907 -1.921462 2.331549 -1.905688 0.234152 -0.242045 -1.781960 -0.529277 0.434351 0.013665 -2.857593 -0.035847 0.000000 0.000000 0.000000 10.635200 -31.784127 -2.027044 -23.041620 -13.527854 9.201063 -15.594602 -74.552823 70.001460 0.000000 0.000000 0.000000 -4.255937 -18.562586 1.083440 15.162316 -12.226723 -7.071547 -178.567794 -86.773536 159.146709 0.000000 0.000000 0.000000 -5.570773 -24.443485 -8.461386 -7.675095 20.345164 -0.853506 -9.777491 1.497164 -4.376046 0.000000 0.000000 0.000000 -3.604325 -10.804947 8.371499 -4.058036 34.945627 -13.130016 -7.313057 9.524265 -4.693211 0.000000 0.000000 0.000000 
-1655.944458 957.324890 1053.787964 0.113972 6.834902 1.920143 -1.555892 -1.084804 2.423824 -1.605826 0.130949 -0.252520 -1.639400 -0.374463 0.505090 -0.043880 -2.992038 0.060145 0.000000 0.000000 0.000000 11.166421 -30.403102 -2.077587 -35.372676 -12.735801 14.104048 -14.462893 -73.436694 79.429236 0.000000 0.000000 0.000000 -3.826412 -19.809751 0.093167 13.827891 -10.195830 -6.628886 -178.218410 -83.661703 158.508120 0.000000 0.000000 0.000000 -5.912660 -22.971365 -8.930174 -8.903383 19.761519 -1.047084 -11.192124 0.547738 -4.690082 0.000000 0.000000 0.000000 -3.546330 -12.853008 10.590944 -4.506010 42.262711 -16.062634 -8.537595 10.048347 -5.308749 0.000000 0.000000 0.000000 
-1634.638184 956.872742 1047.149048 0.751944 5.932061 1.922889 -1.412778 -0.024460 2.896061 -1.196471 0.009714 -0.490313 -1.511641 -0.119245 0.584942 -0.056478 -3.359030 0.145830 0.000000 0.000000 0.000000 12.083791 -28.359938 -2.308943 -47.822494 -11.699741 19.241868 -15.275317 -64.343206 92.405735 0.000000 0.000000 0.000000 -3.201609 -22.057358 -1.052418 12.398151 -7.383769 -5.960282 -177.602617 -79.429705 157.507045 0.000000 0.000000 0.000000 -6.180548 -21.958587 -9.123729 -9.946787 22.359613 -1.601324 -13.276813 -2.881875 -4.594785 0.000000 0.000000 0.000000 -3.299578 -15.305186 13.230426 -4.885971 49.964360 -18.624748 -8.792573 8.636927 -5.213679 0.000000 0.000000 0.000000 
